<svg version="1.2" xmlns="http://www.w3.org/2000/svg" viewBox="0 0 1920 320" width="1920" height="320">
	<title>LoadShedding-Logo</title>
	<style>
		.s0 { fill: #000000 } 
	</style>
	<path id="LoadShedding" class="s0" aria-label="LoadShedding"  d="m185.2 230h105.6v-25.4h-75.2v-108h-30.4zm180-103.4c-38.8 0-65 21.4-65 52.8 0 25.4 14.8 44.2 40.6 51.2 7.6 2.2 15.6 3.2 24.6 3.2 28.4 0 50.8-11.8 60-31.6 3-6.4 4.6-14 4.6-22 0-24.6-15-43.2-40.6-50.4-7.6-2.2-15-3.2-24.2-3.2zm0 21.2c20.2 0 32.8 12.6 32.8 32.8 0 19.8-12.8 32.2-32.8 32.2-20 0-33-12.4-33-31.8 0-15.8 7-26.6 19.6-31 4.4-1.6 8.4-2.2 13.4-2.2zm117.2 15.2c1-6.6 2.4-9 5.6-11 4.4-2.8 10.2-4.2 18-4.2 10.2 0 16.6 2.2 19.8 6.6 0.8 1.2 1.4 2.8 1.4 4.6 0 6.2-4.6 8.2-24.8 10.6-31.4 3.6-31.4 3.6-39.6 6.8-11.4 4.4-18 14-18 26.6 0 15.2 10 26.2 26.8 29.4 4.4 1 9 1.4 13.6 1.4 18.2 0 31.2-4.8 42.6-15.6l2.6 11.8h30.6v-3c-2.8-3-3.6-7.2-3.6-18v-41.4c0-13.8-1.8-20.8-6.8-26.6-5.4-6-14.4-10.4-25.8-12.6-6.2-1.2-13-1.8-20-1.8-32.8 0-52.6 13.4-54 36.4zm44.6 23.6c0 8.4-1.6 13.2-6 16.8-6.8 5.6-17.4 9.2-27 9.2-8.4 0-14.2-2.4-16.4-7-0.4-1.2-0.8-2.6-0.8-4 0-8 5.2-11 23.6-13.6 19-2.4 20.4-2.8 26.6-6zm173.4 43.4v-133.4h-30.4v47c-11.2-11.4-21.6-15.8-37.8-15.8-24.4 0-43.4 12.2-51.4 33.2-2.2 6-3.4 12.4-3.4 19 0 22.8 12.4 41.8 32.6 49.8 6.8 2.6 14.4 4 22.4 4 16.2 0 26-4.2 37.6-15.6v11.8zm-61.8-79.2c18.6 0 32 12.6 32 29.8 0 13.4-7.2 24-19.2 28.6-3.8 1.4-8 2-12.8 2-13.6 0-24.6-7-28.8-18.8-1.4-3.4-2-7.2-2-11.4 0-13.2 7.2-24 19-28.4 3.6-1.2 7.2-1.8 11.8-1.8zm81.2 34.2c1.6 25.4 16.6 41.8 42.8 46.6 7.8 1.4 15.8 2.2 24.4 2.2 43.4 0 68.6-16.6 68.6-45.4 0-12-5.2-22.4-13.8-28-8.2-5.4-16.8-7.8-43.2-12-22-3.4-27.2-4.4-32.8-6.2-6.6-1.8-9.6-5.2-9.6-10.8 0-9 10.2-13.8 29.2-13.8 19.4 0 28.2 5.2 30 18h35c-0.6-11.2-4-18.8-12-26.8-10.6-10.8-27.6-16-52.8-16-40.8 0-63.8 15.4-63.8 42.8 0 12 5.2 22 14.4 27.6 9 5.4 13.2 6.6 43.4 11.2 26.6 4.2 34.6 6.6 38 11.6 1.2 1.6 1.8 3.8 1.8 6.2 0 8-6.6 14.2-17.4 16-3.8 0.6-7.6 1-11.6 1-22.6 0-33.4-7.4-34.8-24.2zm157.6 45h30.4v-47.2c0-9.6 0.4-12.4 1.8-16.4 3.6-9 13.4-14.8 24.8-14.8 9.2 0 16.8 3.8 19.8 9.8 1.6 3.2 2.2 6.6 2.2 13.2v55.4h30.6v-62c0-11-0.4-14.4-2-19-3-9-11.6-16-22.8-19.2-5-1.4-10.2-2-15.6-2-17.6 0-27.4 4.8-38.8 19.2v-50.4h-30.4zm216.6-30.6c-5.4 8-9.8 11.2-17 12.6-2.8 0.6-5.6 0.8-8.6 0.8-18.4 0-28.2-8.4-29.4-25.4h90.4v-4.2c0-34.8-24-56.6-62.2-56.6-28.4 0-48.6 12-56.8 33.6-2.4 6.4-3.6 13.6-3.6 21 0 25.4 14.6 44.2 38.8 50 7 1.8 14.2 2.6 22 2.6 30.2 0 49.8-11.2 60.8-34.4zm-53.4-30.6c1.6-9.6 6.4-15.6 15-18.8 4-1.4 8.2-2.2 12.6-2.2 15 0 25.4 7.8 27.8 21zm227 61.2v-133.4h-30.4v47c-11.2-11.4-21.6-15.8-37.8-15.8-24.4 0-43.4 12.2-51.4 33.2-2.2 6-3.4 12.4-3.4 19 0 22.8 12.4 41.8 32.6 49.8 6.8 2.6 14.4 4 22.4 4 16.2 0 26-4.2 37.6-15.6v11.8zm-61.8-79.2c18.6 0 32 12.6 32 29.8 0 13.4-7.2 24-19.2 28.6-3.8 1.4-8 2-12.8 2-13.6 0-24.6-7-28.8-18.8-1.4-3.4-2-7.2-2-11.4 0-13.2 7.2-24 19-28.4 3.6-1.2 7.2-1.8 11.8-1.8zm204.8 79.2v-133.4h-30.4v47c-11.2-11.4-21.6-15.8-37.8-15.8-24.4 0-43.4 12.2-51.4 33.2-2.2 6-3.4 12.4-3.4 19 0 22.8 12.4 41.8 32.6 49.8 6.8 2.6 14.4 4 22.4 4 16.2 0 26-4.2 37.6-15.6v11.8zm-61.8-79.2c18.6 0 32 12.6 32 29.8 0 13.4-7.2 24-19.2 28.6-3.8 1.4-8 2-12.8 2-13.6 0-24.6-7-28.8-18.8-1.4-3.4-2-7.2-2-11.4 0-13.2 7.2-24 19-28.4 3.6-1.2 7.2-1.8 11.8-1.8zm86.4-29.2h30.4v-25h-30.4zm0 108.4h30.4v-99.6h-30.4zm54.8 0h30.4v-49.8c0-14.8 4.4-22.4 15.4-26.6 3.6-1.4 7.4-2 11.2-2 7.2 0 13.8 2.4 17.6 6.6 3.2 3.8 4.4 7.8 4.4 16.4v55.4h30.6v-62c0-14.4-1-19.2-5-25-6.6-9.6-19.6-15.2-35.4-15.2-17.6 0-27.4 4.8-38.8 19.2v-16.6h-30.4zm249.4-99.6h-30.2v13.6c-6.8-8.6-13.8-12.8-24.8-15-3.6-0.8-7.6-1.2-11.8-1.2-31.4 0-53 20.8-53 51.2 0 29.2 22.6 50.6 53.2 50.6 15.8 0 26.6-4.6 36.4-15.6v10.6c0 15.2-10.2 23.2-29 23.2-14 0-21.8-4.4-23.2-13.4h-33.6c1.2 9 2.8 13.4 7.8 18.6 9 9.6 25.6 14.6 49 14.6 24.2 0 39-4.8 49.2-16.2 7.6-8.6 10-16.8 10-34.8zm-59.2 20.6c18.4 0 30 10.6 30 27.2 0 18-11.2 28.4-30.2 28.4-18.6 0-30-10.6-30-28 0-12.4 6.2-21.8 16.8-25.4 4.2-1.6 8.2-2.2 13.4-2.2z"/>
</svg>